<?xml version="1.0" standalone="no"?>
<!DOCTYPE svg PUBLIC "-//W3C//DTD SVG 20010904//EN"
 "http://www.w3.org/TR/2001/REC-SVG-20010904/DTD/svg10.dtd">
<svg version="1.0" xmlns="http://www.w3.org/2000/svg"
 width="27.000000pt" height="25.000000pt" viewBox="0 0 27.000000 25.000000"
 preserveAspectRatio="xMidYMid meet">

<g transform="translate(0.000000,25.000000) scale(0.100000,-0.100000)"
fill="#000000" stroke="none">
<path d="M0 125 l0 -125 135 0 135 0 0 125 0 125 -52 0 -53 -1 37 -20 c46 -24
58 -45 57 -101 -1 -36 -2 -39 -9 -18 -7 22 -8 22 -9 4 -1 -26 -48 -71 -82 -79
-39 -10 -93 17 -108 54 -28 66 15 141 80 141 16 0 29 4 29 9 0 5 -36 10 -80
10 l-80 1 0 -125z m54 80 c-9 -14 -19 -23 -22 -20 -5 4 26 45 35 45 2 0 -4
-11 -13 -25z m196 -135 c0 -18 -75 -60 -108 -60 -30 0 -92 24 -92 36 0 2 13
-2 30 -11 45 -23 83 -19 125 15 41 33 45 35 45 20z"/>
<path d="M211 192 c13 -17 28 -31 32 -31 14 -1 -13 38 -35 50 -21 11 -21 10 3
-19z"/>
<path d="M145 140 c-4 -7 -16 -10 -26 -7 -12 3 -19 0 -19 -10 0 -10 6 -13 16
-9 8 3 12 2 9 -4 -3 -6 -2 -10 2 -10 10 0 36 40 30 47 -3 2 -8 -1 -12 -7z"/>
</g>
</svg>
